# xmcd CD database file
#
# Track frame offsets:
#	150
#	15740
#	26720
#	40135
#	52075
#	62780
#	80740
#	90917
#	104607
#	117065
#	135370
#	152140
#
# Disc length: 2153 seconds
#
# Revision: 0
# Processed by: cddbd v1.5.1PL0 Copyright (c) Steve Scherf et al.
# Submitted via: CDex 1.51
#
DISCID=9708670c
DTITLE=Sue Raney  - Happiness Is A Warm Sue Raney 
DYEAR=1900
DGENRE=Jazz
TTITLE0=Be Warm 
TTITLE1=Beautiful Friendship 
TTITLE2=Sunday In Savannah 
TTITLE3=The World Is Waiting For The Sunrise 
TTITLE4=Lorna's Here 
TTITLE5=I'm Painting The Town Red 
TTITLE6=Wait Till The Sun Shines Willie 
TTITLE7=Better Luck Next Time 
TTITLE8=As Long As I Live 
TTITLE9=Statue Of Snow 
TTITLE10=My Future Just Passed
TTITLE11=I'm In Love With The Honorable Mr. So and So
EXTD=
EXTT0=
EXTT1=
EXTT2=
EXTT3=
EXTT4=
EXTT5=
EXTT6=
EXTT7=
EXTT8=
EXTT9=
EXTT10=
EXTT11=
PLAYORDER=
